<svg xmlns="http://www.w3.org/2000/svg" width="58" height="59" fill="none"><path fill="#fff" d="M9.622 24a14.498 14.498 0 1 0 4.246-10.252A14.401 14.401 0 0 0 9.622 24ZM.56 24C.56 10.987 11.108.44 24.12.44 37.133.44 47.68 10.986 47.68 24c0 13.012-10.547 23.56-23.56 23.56C11.108 47.56.56 37.012.56 24Z"/><path fill="#fff" d="M49.705 57.771 38.412 46.478a2.718 2.718 0 0 1-.793-1.925v-1.847l4.078-4.078h1.846a2.717 2.717 0 0 1 1.925.793l11.293 11.293a2.706 2.706 0 0 1 0 3.84l-3.205 3.206a2.73 2.73 0 0 1-3.851.011Z" opacity=".6"/></svg>
