<svg width="25" height="24" viewBox="0 0 25 24" fill="none" xmlns="http://www.w3.org/2000/svg">
<g clip-path="url(#clip0_331_24)">
<path d="M12.5 24.0001C19.4036 24.0001 25.0001 18.6275 25.0001 12C25.0001 5.37259 19.4036 0 12.5 0C5.59645 0 0 5.37259 0 12C0 18.6275 5.59645 24.0001 12.5 24.0001Z" fill="#C4302B"/>
<path d="M21.3385 3.51342C26.2201 8.20013 26.2205 15.7984 21.3385 20.4851C16.4569 25.1714 8.54166 25.1716 3.65967 20.4851L21.3385 3.51342Z" fill="#C4302B"/>
<path d="M24.7488 14.4034L18.5621 8.46442L11.2656 9.26196L6.85205 15.8215L15.0991 23.7385C19.9479 22.7538 23.7599 19.0717 24.7488 14.4034Z" fill="#C4302B"/>
<path d="M19.041 9.68435C19.041 8.67838 18.1921 7.86302 17.1448 7.86302H8.24839C7.20129 7.86302 6.35254 8.67858 6.35254 9.68435V14.5683C6.35254 15.5743 7.20145 16.3896 8.24839 16.3896H17.1447C18.1922 16.3896 19.0409 15.5741 19.0409 14.5683V9.68435H19.041ZM11.4275 14.1867V9.59947L15.0512 11.8932L11.4275 14.1867Z" fill="white"/>
</g>
<defs>
<clipPath id="clip0_331_24">
<rect width="25" height="24" fill="white"/>
</clipPath>
</defs>
</svg>
